<?xml version="1.0" encoding="UTF-8"?>
<svg xmlns="http://www.w3.org/2000/svg" viewBox="0 0 1200 630" width="1200" height="630">
  <defs>
    <linearGradient id="g16754" x1="96.67902132486009%" y1="32.08160252273499%" x2="3.320978675139912%" y2="67.91839747726502%">
      <stop offset="0%" stop-color="#D97706"/>
      <stop offset="100%" stop-color="#B45309"/>
    </linearGradient>
  </defs>
  <rect width="1200" height="630" fill="url(#g16754)"/>
  <circle cx="696.0791225545108" cy="337.73205063771456" r="8" fill="rgba(255,255,255,0.2)"/><ellipse cx="696.0791225545108" cy="337.73205063771456" rx="118.14927740953863" ry="40.63579714857042" fill="none" stroke="rgba(255,255,255,0.12)" stroke-width="1.5" transform="rotate(23.589421254582703 696.0791225545108 337.73205063771456)"/><ellipse cx="696.0791225545108" cy="337.73205063771456" rx="87.56315420381725" ry="39.92097981739789" fill="none" stroke="rgba(255,255,255,0.12)" stroke-width="1.5" transform="rotate(77.36229026690125 696.0791225545108 337.73205063771456)"/><ellipse cx="696.0791225545108" cy="337.73205063771456" rx="86.55477089807391" ry="37.27284512948245" fill="none" stroke="rgba(255,255,255,0.12)" stroke-width="1.5" transform="rotate(138.12503759516403 696.0791225545108 337.73205063771456)"/><circle cx="403.6023875642791" cy="80" r="3" fill="rgba(255,255,255,0.15)"/><circle cx="341.65763399288477" cy="80" r="3" fill="rgba(255,255,255,0.10)"/><circle cx="387.68369412583917" cy="105" r="3" fill="rgba(255,255,255,0.15)"/><circle cx="359.3347817431964" cy="105" r="3" fill="rgba(255,255,255,0.10)"/><line x1="387.68369412583917" y1="105" x2="359.3347817431964" y2="105" stroke="rgba(255,255,255,0.08)" stroke-width="1"/><circle cx="341.5760831157369" cy="130" r="3" fill="rgba(255,255,255,0.15)"/><circle cx="402.6522777121272" cy="130" r="3" fill="rgba(255,255,255,0.10)"/><circle cx="329.8514180893239" cy="155" r="3" fill="rgba(255,255,255,0.15)"/><circle cx="408.6341564898729" cy="155" r="3" fill="rgba(255,255,255,0.10)"/><line x1="329.8514180893239" y1="155" x2="408.6341564898729" y2="155" stroke="rgba(255,255,255,0.08)" stroke-width="1"/><circle cx="330.447947545477" cy="180" r="3" fill="rgba(255,255,255,0.15)"/><circle cx="409.3780003873555" cy="180" r="3" fill="rgba(255,255,255,0.10)"/><circle cx="362.8231077570525" cy="205" r="3" fill="rgba(255,255,255,0.15)"/><circle cx="397.53500731732083" cy="205" r="3" fill="rgba(255,255,255,0.10)"/><line x1="362.8231077570525" y1="205" x2="397.53500731732083" y2="205" stroke="rgba(255,255,255,0.08)" stroke-width="1"/><circle cx="377.0448294096621" cy="230" r="3" fill="rgba(255,255,255,0.15)"/><circle cx="352.57062196947" cy="230" r="3" fill="rgba(255,255,255,0.10)"/><circle cx="390.232253489413" cy="255" r="3" fill="rgba(255,255,255,0.15)"/><circle cx="356.4616264297748" cy="255" r="3" fill="rgba(255,255,255,0.10)"/><line x1="390.232253489413" y1="255" x2="356.4616264297748" y2="255" stroke="rgba(255,255,255,0.08)" stroke-width="1"/><circle cx="408.86938696314564" cy="280" r="3" fill="rgba(255,255,255,0.15)"/><circle cx="331.9614859423109" cy="280" r="3" fill="rgba(255,255,255,0.10)"/><circle cx="407.65740484241707" cy="305" r="3" fill="rgba(255,255,255,0.15)"/><circle cx="339.76001275438364" cy="305" r="3" fill="rgba(255,255,255,0.10)"/><line x1="407.65740484241707" y1="305" x2="339.76001275438364" y2="305" stroke="rgba(255,255,255,0.08)" stroke-width="1"/><circle cx="386.31900090718153" cy="330" r="3" fill="rgba(255,255,255,0.15)"/><circle cx="344.06823018367953" cy="330" r="3" fill="rgba(255,255,255,0.10)"/><circle cx="380.81663384909757" cy="355" r="3" fill="rgba(255,255,255,0.15)"/><circle cx="365.4045387368828" cy="355" r="3" fill="rgba(255,255,255,0.10)"/><line x1="380.81663384909757" y1="355" x2="365.4045387368828" y2="355" stroke="rgba(255,255,255,0.08)" stroke-width="1"/><circle cx="334.30752110742486" cy="380" r="3" fill="rgba(255,255,255,0.15)"/><circle cx="391.3575930713142" cy="380" r="3" fill="rgba(255,255,255,0.10)"/><circle cx="342.5180185924999" cy="405" r="3" fill="rgba(255,255,255,0.15)"/><circle cx="409.36853338205935" cy="405" r="3" fill="rgba(255,255,255,0.10)"/><line x1="342.5180185924999" y1="405" x2="409.36853338205935" y2="405" stroke="rgba(255,255,255,0.08)" stroke-width="1"/><circle cx="332.20745892351624" cy="430" r="3" fill="rgba(255,255,255,0.15)"/><circle cx="408.5418648712596" cy="430" r="3" fill="rgba(255,255,255,0.10)"/><circle cx="334.3040930877903" cy="455" r="3" fill="rgba(255,255,255,0.15)"/><circle cx="389.75695892640954" cy="455" r="3" fill="rgba(255,255,255,0.10)"/><line x1="334.3040930877903" y1="455" x2="389.75695892640954" y2="455" stroke="rgba(255,255,255,0.08)" stroke-width="1"/><circle cx="350.2176491386483" cy="480" r="3" fill="rgba(255,255,255,0.15)"/><circle cx="387.1318124493458" cy="480" r="3" fill="rgba(255,255,255,0.10)"/><circle cx="380.32284915477857" cy="505" r="3" fill="rgba(255,255,255,0.15)"/><circle cx="346.1462548522179" cy="505" r="3" fill="rgba(255,255,255,0.10)"/><line x1="380.32284915477857" y1="505" x2="346.1462548522179" y2="505" stroke="rgba(255,255,255,0.08)" stroke-width="1"/><circle cx="409.244796849694" cy="530" r="3" fill="rgba(255,255,255,0.15)"/><circle cx="329.39690898816843" cy="530" r="3" fill="rgba(255,255,255,0.10)"/><path d="M 881.500230114907 292.8751555457711 L 881.500230114907 352.8751555457711 L 851.500230114907 432.8751555457711 A 5 5 0 0 0 856.500230114907 442.8751555457711 L 936.500230114907 442.8751555457711 A 5 5 0 0 0 941.500230114907 432.8751555457711 L 911.500230114907 352.8751555457711 L 911.500230114907 292.8751555457711 Z" fill="rgba(255,255,255,0.06)" stroke="rgba(255,255,255,0.15)" stroke-width="2"/><polygon points="956.6251933244611,256.71064049063716 956.6251933244611,292.4508838908514 925.6732346024364,310.3210055909585 894.7212758804118,292.4508838908514 894.7212758804118,256.71064049063716 925.6732346024364,238.84051879053004" fill="none" stroke="rgba(255,255,255,0.1447419622633606)" stroke-width="1.5"/><polygon points="1020.8503305627925,296.02343629987445 1020.8503305627925,321.09354224114213 999.1389819420874,333.628595211776 977.4276333213824,321.09354224114213 977.4276333213824,296.02343629987445 999.1389819420874,283.4883833292406" fill="none" stroke="rgba(255,255,255,0.09195689318701625)" stroke-width="1.5"/><polygon points="944.5816878962087,201.18344448681455 944.5816878962087,239.55800106574316 911.3483470398933,258.74527935520746 878.1150061835779,239.55800106574316 878.1150061835779,201.18344448681455 911.3483470398933,181.99616619735025" fill="none" stroke="rgba(255,255,255,0.14958052108529957)" stroke-width="1.5"/>
  <circle cx="298.86204404756427" cy="479.3399829114787" r="1.9353205971419811" fill="rgba(255,255,255,0.04945333767216653)"/><circle cx="70.2277634292841" cy="324.9991873651743" r="1.603202949743718" fill="rgba(255,255,255,0.06159332933137193)"/><circle cx="503.1675757840276" cy="21.98808565735817" r="2.2818790483288467" fill="rgba(255,255,255,0.03079540305305272)"/><circle cx="893.4795674867928" cy="259.6331134205684" r="2.736914232838899" fill="rgba(255,255,255,0.06314426811411977)"/><circle cx="711.4386613480747" cy="619.9485248769633" r="2.8204388902522624" fill="rgba(255,255,255,0.030003670726437122)"/><circle cx="731.2452591955662" cy="531.668723942712" r="1.0769764161668718" fill="rgba(255,255,255,0.04039753425866365)"/><circle cx="600.9649238549173" cy="381.81450528558344" r="1.9834784320555627" fill="rgba(255,255,255,0.07015943501144647)"/><circle cx="844.979570992291" cy="435.2537498320453" r="2.408549282234162" fill="rgba(255,255,255,0.05418731924844906)"/><circle cx="1162.2105645015836" cy="376.6994005534798" r="2.0384981390088797" fill="rgba(255,255,255,0.07097767086932436)"/><circle cx="440.4834053479135" cy="153.67613432463259" r="1.3781407736241817" fill="rgba(255,255,255,0.030363437097985297)"/><circle cx="965.3868841007352" cy="394.1218608082272" r="1.2586179710924625" fill="rgba(255,255,255,0.04217318623093888)"/><circle cx="103.45544088631868" cy="409.5080656162463" r="2.377288813237101" fill="rgba(255,255,255,0.032835336269345136)"/><circle cx="374.00433272123337" cy="253.31507884897292" r="1.5045684450305998" fill="rgba(255,255,255,0.04454383296659216)"/><circle cx="731.3057952560484" cy="627.5436874246225" r="1.262488760985434" fill="rgba(255,255,255,0.036991363153792915)"/><circle cx="285.3259211406112" cy="346.1520648817532" r="1.2221616632305086" fill="rgba(255,255,255,0.05088406455004588)"/><circle cx="771.5867905877531" cy="480.0232136528939" r="2.100771733559668" fill="rgba(255,255,255,0.0584611331182532)"/><circle cx="230.6586823426187" cy="563.717165957205" r="1.4218525448814034" fill="rgba(255,255,255,0.04207750091562047)"/><circle cx="280.4699373431504" cy="97.33025285415351" r="1.6458579576574266" fill="rgba(255,255,255,0.07680610168725252)"/><circle cx="307.61917512863874" cy="43.460037941113114" r="2.80524595733732" fill="rgba(255,255,255,0.055748065824154765)"/><circle cx="221.29735127091408" cy="459.5749161927961" r="2.6737520680762827" fill="rgba(255,255,255,0.03672193272039294)"/>
  <text x="600" y="335" font-family="system-ui, -apple-system, 'Segoe UI', sans-serif" font-size="68" font-weight="700" fill="rgba(0,0,0,0.15)" text-anchor="middle" letter-spacing="1">A Level Physics</text>
  <text x="600" y="332" font-family="system-ui, -apple-system, 'Segoe UI', sans-serif" font-size="68" font-weight="700" fill="white" text-anchor="middle" letter-spacing="1">A Level Physics</text>
  <g transform="translate(1140, 575)">
    <rect x="0" y="0" width="40" height="40" rx="8" fill="rgba(255,255,255,0.15)"/>
    <text x="20" y="29" font-family="sans-serif" font-weight="bold" font-size="24" fill="rgba(255,255,255,0.6)" text-anchor="middle">K</text>
  </g>
</svg>